<svg aria-hidden="true" style="position: absolute; width: 0; height: 0; overflow: hidden;" version="1.1" xmlns="http://www.w3.org/2000/svg" xmlns:xlink="http://www.w3.org/1999/xlink">
<defs>
<symbol id="icon-down" viewBox="0 0 32 32">
<path d="M29.015 10.434c0.293-0.228 0.325-0.626 0.072-0.89s-0.695-0.293-0.988-0.065l-11.651 9.066-12.736-8.606c-0.305-0.206-0.743-0.144-0.979 0.139s-0.179 0.679 0.126 0.886l13.182 8.908c0.149 0.101 0.33 0.137 0.503 0.115 0.138-0.013 0.273-0.062 0.386-0.15l12.084-9.402z"></path>
<path d="M29.087 9.544v0zM29.015 10.434v0zM28.099 9.479v0zM16.449 18.544l-0.373 0.552 0.401 0.271 0.382-0.297-0.409-0.526zM3.713 9.939v0zM2.734 10.078v0zM2.86 10.963v0zM16.042 19.871v0zM16.545 19.986l-0.061-0.664-0.011 0.001-0.011 0.001 0.083 0.661zM16.931 19.836v0zM28.606 10.005c0 0-0.001-0.001-0.003-0.005s-0.004-0.008-0.006-0.013c-0.004-0.012-0.006-0.025-0.005-0.039s0.005-0.025 0.009-0.033c0.005-0.008 0.008-0.010 0.005-0.008l0.819 1.052c0.596-0.464 0.678-1.32 0.144-1.878l-0.963 0.923zM28.509 10.005c0.007-0.005 0.026-0.015 0.056-0.013 0.014 0.001 0.025 0.004 0.032 0.007 0.004 0.002 0.006 0.003 0.007 0.004s0.002 0.002 0.002 0.002l0.963-0.923c-0.495-0.516-1.323-0.563-1.879-0.13l0.819 1.052zM16.858 19.070l11.651-9.066-0.819-1.052-11.651 9.066 0.819 1.052zM3.34 10.491l12.735 8.606 0.747-1.105-12.736-8.606-0.747 1.105zM3.246 10.504c0.002-0.003 0.016-0.015 0.045-0.019s0.045 0.004 0.048 0.006l0.746-1.105c-0.589-0.398-1.41-0.281-1.865 0.265l1.025 0.853zM3.233 10.411c-0.001-0.001 0.003 0.002 0.009 0.011s0.010 0.020 0.012 0.033 0.001 0.025-0.002 0.035c-0.003 0.010-0.007 0.015-0.006 0.013l-1.025-0.853c-0.488 0.586-0.367 1.438 0.265 1.865l0.747-1.105zM16.415 19.319l-13.182-8.908-0.747 1.105 13.182 8.908 0.746-1.105zM16.462 19.325c-0.028 0.004-0.044-0.004-0.047-0.006l-0.746 1.105c0.295 0.199 0.641 0.265 0.959 0.225l-0.166-1.323zM16.522 19.31c-0.005 0.004-0.017 0.011-0.038 0.012l0.122 1.328c0.255-0.023 0.513-0.116 0.734-0.288l-0.819-1.052zM28.606 9.908l-12.084 9.402 0.819 1.052 12.084-9.402-0.819-1.052z"></path>
</symbol>
<symbol id="icon-menu" viewBox="0 0 24 24">
<path d="M3 13h18c0.552 0 1-0.448 1-1s-0.448-1-1-1h-18c-0.552 0-1 0.448-1 1s0.448 1 1 1zM3 7h18c0.552 0 1-0.448 1-1s-0.448-1-1-1h-18c-0.552 0-1 0.448-1 1s0.448 1 1 1zM3 19h18c0.552 0 1-0.448 1-1s-0.448-1-1-1h-18c-0.552 0-1 0.448-1 1s0.448 1 1 1z"></path>
</symbol>
<symbol id="icon-close" viewBox="0 0 24 24" >
<path d="M5.293 6.707l5.293 5.293-5.293 5.293c-0.391 0.391-0.391 1.024 0 1.414s1.024 0.391 1.414 0l5.293-5.293 5.293 5.293c0.391 0.391 1.024 0.391 1.414 0s0.391-1.024 0-1.414l-5.293-5.293 5.293-5.293c0.391-0.391 0.391-1.024 0-1.414s-1.024-0.391-1.414 0l-5.293 5.293-5.293-5.293c-0.391-0.391-1.024-0.391-1.414 0s-0.391 1.024 0 1.414z"></path>
</symbol>
<symbol id="icon-rozkvitay" viewBox="0 0 106 32">
<path  d="M7.424 12.8h-1.257v10.828h1.542v0.614h-7.709v-0.614h1.542v-21.398h-1.542v-0.614h7.163c2.056 0 3.511 0.151 4.365 0.453 0.87 0.28 1.479 0.625 1.826 1.034 0.759 0.84 1.139 2.176 1.139 4.008s-0.332 3.146-0.996 3.943c-0.664 0.776-1.676 1.239-3.036 1.39v0.097c1.281 0.237 2.174 0.754 2.68 1.552s0.759 2.133 0.759 4.008v1.713c0 1.121 0.040 1.875 0.119 2.263 0.095 0.388 0.285 0.582 0.569 0.582s0.506-0.172 0.664-0.517c0.174-0.366 0.735-1.894 0.878-3.036l0.193 1.096c-0.174 1.832-0.675 2.801-1.118 3.426-0.427 0.625-1.289 0.937-2.585 0.937s-2.222-0.409-2.775-1.228c-0.538-0.84-0.806-2.403-0.806-4.687v-2.36c0-1.207-0.119-2.090-0.356-2.651-0.221-0.56-0.64-0.84-1.257-0.84zM6.167 2.23v9.956h0.759c0.901 0 1.566-0.377 1.993-1.131 0.443-0.754 0.664-1.982 0.664-3.685v-0.937c0-1.702-0.213-2.823-0.64-3.362-0.411-0.56-1.075-0.84-1.992-0.84h-0.783z"></path>
<path  d="M23.424 18.057v-2.747c0-2.090-0.087-3.609-0.261-4.558-0.158-0.97-0.538-1.455-1.139-1.455-0.348 0-0.633 0.14-0.854 0.42-0.206 0.259-0.356 0.7-0.451 1.325-0.142 0.97-0.213 2.446-0.213 4.428v2.521c0 2.349 0.047 3.76 0.142 4.234 0.111 0.474 0.221 0.862 0.332 1.164 0.174 0.517 0.514 0.776 1.020 0.776 0.617 0 1.020-0.485 1.21-1.455 0.142-0.69 0.213-2.241 0.213-4.655zM21.953 24.747c-1.977 0-3.471-0.69-4.483-2.069s-1.518-3.351-1.518-5.915c0-2.586 0.538-4.568 1.613-5.947 1.091-1.401 2.617-2.101 4.578-2.101s3.424 0.646 4.388 1.939c0.965 1.271 1.447 3.222 1.447 5.851 0 5.495-2.008 8.242-6.025 8.242z"></path>
<path  d="M38.895 8.857v0.582l-5.622 14.222h0.308c1.328 0 2.372-0.474 3.131-1.422s1.406-3.438 1.832-5.572l0.741-1.515-0.842 9.091h-9.962v-0.485l5.717-14.319h-0.261c-1.597 0-2.712 0.356-3.345 1.067-0.617 0.711-1.308 3.22-2.040 5.657l-0.575 0.343 0.955-7.648h9.962z"></path>
<path  d="M46.439 24.242v-0.582h1.091l-2.681-7.499-0.451 0.162v7.337h1.091v0.582h-7.046l0.033-0.582h1.509v-23.079h-1.4v-0.582h5.811v15.677l0.38-0.194 5.337-6.044h-2.23v-0.582h4.673v0.582h-1.66l-2.823 3.265 4.103 10.958h0.854v0.582h-6.594z"></path>
<path  d="M52.559 9.438v-0.582h7.093v0.582h-1.494l2.846 10.731 2.562-10.731h-1.589v-0.582h3.202v0.582h-1.044l-3.511 14.804h-2.704l-4.389-14.804h-0.973z"></path>
<path  d="M68.76 6.626c-0.838 0-1.439-0.291-1.803-0.873-0.348-0.582-0.522-1.304-0.522-2.166s0.19-1.573 0.569-2.133c0.395-0.56 0.988-0.84 1.779-0.84s1.392 0.259 1.803 0.776c0.411 0.496 0.617 1.218 0.617 2.166 0 0.927-0.198 1.67-0.593 2.23s-1.012 0.84-1.85 0.84zM65.178 8.857l5.811 0v14.804h1.328v0.582h-7.045v-0.582h1.305v-14.222h-1.399v-0.582z"></path>
<path  d="M74.178 19.64v-10.182h-3.188v-0.602l3.188 0.020v-4.17l4.412-1.487v5.657h3.084v0.582h-3.084v10.893c0 1.013 0.071 1.756 0.214 2.23 0.158 0.474 0.474 0.711 0.949 0.711s0.886-0.323 1.233-0.97c0.364-0.646 1.408-2.010 1.519-3.131l-0.040 0.396c-0.126 1.487-0.838 2.821-1.408 3.705-0.569 0.862-1.51 1.293-2.823 1.293s-2.317-0.356-3.012-1.067c-0.696-0.711-1.044-2.004-1.044-3.879z"></path>
<path  d="M87.789 16.065h0.688v-2.489c0-2.047-0.087-3.415-0.261-4.105-0.158-0.711-0.474-1.067-0.949-1.067-0.285 0-0.546 0.108-0.783 0.323-0.221 0.194-0.332 0.474-0.332 0.84 0 0.345 0.048 0.7 0.142 1.067h0.593c0.126 0.453 0.19 1.002 0.19 1.648 0 0.625-0.198 1.174-0.593 1.649-0.395 0.453-0.893 0.679-1.494 0.679-1.36 0-2.040-0.894-2.040-2.683 0-2.65 1.653-3.976 4.958-3.976 1.882 0 3.178 0.442 3.89 1.325 0.727 0.862 1.091 2.457 1.091 4.784v6.562c0 1.121 0.229 1.681 0.688 1.681 0.538 0 0.854-1.11 0.949-3.329l0.356 0.032c-0.063 1.896-0.324 3.2-0.783 3.911s-1.21 1.067-2.253 1.067c-1.898 0-2.989-0.797-3.273-2.392-0.205 0.819-0.514 1.422-0.925 1.81s-1.012 0.582-1.803 0.582c-2.341 0-3.511-1.304-3.511-3.911 0-1.53 0.443-2.575 1.328-3.135 0.901-0.582 2.277-0.873 4.127-0.873zM86.84 20.040c0 1.121 0.039 1.842 0.119 2.166 0.095 0.323 0.261 0.485 0.498 0.485 0.253 0 0.482-0.269 0.688-0.808 0.222-0.56 0.332-1.325 0.332-2.295v-3.006h-0.166c-0.981 0-1.471 0.98-1.471 2.941v0.517z"></path>
<path  d="M91.656 9.115l-0.683-0.529 8.786-0.053v0.582h-1.281l2.585 10.731 2.752-10.731h-1.589v-0.582h3.344v0.582h-1.186l-4.436 17.422c-0.522 2.026-1.107 3.437-1.755 4.234-0.648 0.819-1.439 1.228-2.372 1.228s-1.668-0.291-2.206-0.873c-0.537-0.582-0.806-1.325-0.806-2.23s0.174-1.595 0.522-2.069c0.348-0.474 0.806-0.711 1.376-0.711 1.313 0 1.969 0.743 1.969 2.23 0 0.323-0.048 0.711-0.142 1.164h-0.83c-0.126 0.496-0.142 0.905-0.048 1.228s0.309 0.485 0.641 0.485c0.648 0 1.226-0.442 1.732-1.325 0.506-0.862 0.988-2.187 1.447-3.976l0.522-2.004h-2.087l-4.056-14.804h-2.196z"></path>
</symbol>
<symbol id="icon-line" viewBox="0 0 5 32">
<path d="M2.483 32v-32h0.571v32h-0.571z"></path>
</symbol>
<symbol id="icon-arrow" viewBox="0 0 5 32">
<path d="M2.483 31.621c0.133 0.133 0.349 0.133 0.481 0l2.166-2.166c0.133-0.133 0.133-0.349 0-0.482s-0.348-0.133-0.481 0l-1.926 1.926-1.926-1.926c-0.133-0.133-0.348-0.133-0.481 0s-0.133 0.349 0 0.482l2.166 2.166zM2.383 0v31.38h0.681v-31.38h-0.681z"></path>
</symbol>


<symbol id="icon-line-desktop" viewBox="0 0 1 32">
<path d="M0 32v-32h0.571v32h-0.571z"></path>
</symbol>
<symbol id="icon-arrow-desktop" viewBox="0 0 18 32">
<path  d="M9.31 30.741c0.223 0.223 0.585 0.223 0.808 0l3.637-3.637c0.223-0.223 0.223-0.585 0-0.808s-0.585-0.223-0.808 0l-3.232 3.232-3.232-3.233c-0.223-0.223-0.585-0.223-0.808 0s-0.223 0.585 0 0.808l3.637 3.637zM9.143 4v26.337h1.143v-26.337h-1.143z"></path>
</symbol>

<symbol id="icon-telegram"  viewBox="0 0 48 48" ><path fill="#29b6f6" d="M24 4A20 20 0 1 0 24 44A20 20 0 1 0 24 4Z"/><path fill="#fff" d="M33.95,15l-3.746,19.126c0,0-0.161,0.874-1.245,0.874c-0.576,0-0.873-0.274-0.873-0.274l-8.114-6.733 l-3.97-2.001l-5.095-1.355c0,0-0.907-0.262-0.907-1.012c0-0.625,0.933-0.923,0.933-0.923l21.316-8.468 c-0.001-0.001,0.651-0.235,1.126-0.234C33.667,14,34,14.125,34,14.5C34,14.75,33.95,15,33.95,15z"/><path fill="#b0bec5" d="M23,30.505l-3.426,3.374c0,0-0.149,0.115-0.348,0.12c-0.069,0.002-0.143-0.009-0.219-0.043 l0.964-5.965L23,30.505z"/><path fill="#cfd8dc" d="M29.897,18.196c-0.169-0.22-0.481-0.26-0.701-0.093L16,26c0,0,2.106,5.892,2.427,6.912 c0.322,1.021,0.58,1.045,0.58,1.045l0.964-5.965l9.832-9.096C30.023,18.729,30.064,18.416,29.897,18.196z"/></symbol>

<symbol id="icon-phone" viewBox="0 0 24 24">
<path d="M14.859 5.981c0.943 0.184 1.74 0.683 2.31 1.374 0.42 0.51 0.716 1.124 0.852 1.793 0.109 0.541 0.637 0.891 1.178 0.782s0.891-0.637 0.782-1.178c-0.2-0.992-0.64-1.907-1.269-2.669-0.854-1.036-2.057-1.789-3.47-2.064-0.542-0.106-1.067 0.248-1.173 0.79s0.248 1.067 0.79 1.173zM14.94 1.994c2 0.222 3.743 1.162 5.005 2.544 1.118 1.224 1.858 2.794 2.062 4.519 0.065 0.548 0.562 0.941 1.11 0.876s0.941-0.562 0.876-1.11c-0.253-2.147-1.176-4.106-2.571-5.634-1.578-1.728-3.762-2.906-6.261-3.183-0.549-0.061-1.043 0.335-1.104 0.883s0.335 1.043 0.883 1.104zM23 16.92c0.016-0.714-0.236-1.404-0.673-1.943-0.46-0.566-1.129-0.967-1.925-1.080-0.8-0.098-1.695-0.314-2.586-0.646-0.433-0.159-0.893-0.218-1.344-0.174-0.663 0.064-1.307 0.349-1.819 0.855l-0.72 0.72c-1.77-1.117-3.36-2.667-4.583-4.589l0.726-0.726c0.322-0.33 0.563-0.726 0.707-1.156 0.212-0.632 0.214-1.336-0.039-2.011-0.289-0.753-0.518-1.644-0.644-2.595-0.104-0.714-0.456-1.345-0.963-1.804-0.539-0.486-1.256-0.779-2.027-0.771h-2.996c-0.088 0-0.182 0.004-0.273 0.012-0.824 0.075-1.542 0.478-2.033 1.066s-0.758 1.367-0.683 2.199c0.3 3.076 1.365 6.243 3.216 9.102 1.502 2.413 3.648 4.623 6.298 6.306 2.568 1.697 5.684 2.862 9.086 3.231 0.092 0.009 0.191 0.013 0.288 0.013 0.828-0.003 1.578-0.343 2.118-0.887s0.873-1.297 0.87-2.121zM21 16.92v3c0.001 0.28-0.109 0.53-0.29 0.712s-0.429 0.295-0.706 0.296c-3.149-0.336-5.961-1.391-8.263-2.912-2.428-1.543-4.359-3.537-5.702-5.694-1.697-2.62-2.655-5.481-2.924-8.238-0.024-0.268 0.064-0.526 0.229-0.724s0.403-0.33 0.678-0.355l3.088-0.005c0.271-0.003 0.507 0.094 0.687 0.256 0.17 0.154 0.288 0.366 0.323 0.608 0.142 1.072 0.408 2.117 0.757 3.025 0.081 0.216 0.080 0.447 0.010 0.658-0.049 0.145-0.131 0.281-0.242 0.395l-1.262 1.261c-0.324 0.324-0.379 0.814-0.162 1.201 1.584 2.785 3.839 4.957 6.381 6.378 0.397 0.222 0.882 0.144 1.195-0.166l1.27-1.27c0.166-0.164 0.377-0.257 0.598-0.279 0.152-0.015 0.31 0.005 0.459 0.060 1.022 0.381 2.070 0.636 3.034 0.754 0.241 0.034 0.462 0.166 0.615 0.355 0.147 0.181 0.231 0.412 0.226 0.682z"></path>
</symbol>

<symbol id="icon-mail" viewBox="0 0 32 32">
<path d="M28 5h-24c-2.209 0-4 1.792-4 4v13c0 2.209 1.791 4 4 4h24c2.209 0 4-1.791 4-4v-13c0-2.208-1.791-4-4-4zM2 10.25l6.999 5.25-6.999 5.25v-10.5zM30 22c0 1.104-0.898 2-2 2h-24c-1.103 0-2-0.896-2-2l7.832-5.875 4.368 3.277c0.533 0.398 1.166 0.6 1.8 0.6 0.633 0 1.266-0.201 1.799-0.6l4.369-3.277 7.832 5.875zM30 20.75l-7-5.25 7-5.25v10.5zM17.199 18.602c-0.349 0.262-0.763 0.4-1.199 0.4s-0.851-0.139-1.2-0.4l-12.8-9.602c0-1.103 0.897-2 2-2h24c1.102 0 2 0.897 2 2l-12.801 9.602z"></path>
</symbol>

<symbol id="icon-location" viewBox="0 0 32 32">
<path d="M16.002 17.746c3.309 0 6-2.692 6-6s-2.691-6-6-6c-3.309 0-6 2.691-6 6s2.691 6 6 6zM16.002 6.746c2.758 0 5 2.242 5 5s-2.242 5-5 5c-2.758 0-5-2.242-5-5s2.242-5 5-5zM16 0c-6.618 0-12 5.316-12 12.001 0 7 6.001 14.161 10.376 19.194 0.016 0.020 0.718 0.805 1.586 0.805 0.002 0 0.073 0 0.077 0 0.867 0 1.57-0.785 1.586-0.805 4.377-5.033 10.377-12.193 10.377-19.194 0-6.685-5.383-12.001-12.002-12.001zM16.117 29.883c-0.021 0.020-0.082 0.064-0.135 0.098-0.010-0.027-0.084-0.086-0.129-0.133-3.665-4.217-9.853-11.334-9.853-17.847 0-5.514 4.487-10.001 10-10.001 5.516 0 10.002 4.487 10.002 10.002 0 6.512-6.188 13.629-9.885 17.881z"></path>
</symbol>


</defs>
</svg>
